<svg xmlns="http://www.w3.org/2000/svg" width="13.711" height="15.67" viewBox="0 0 13.711 15.67">
  <path id="discord" d="M9.1,7.443a.8.8,0,1,1-.8-.87A.835.835,0,0,1,9.1,7.443Zm-3.659-.87a.873.873,0,0,0,0,1.739.835.835,0,0,0,.8-.87A.83.83,0,0,0,5.438,6.574Zm8.274-4.96V15.67c-1.974-1.744-1.343-1.167-3.635-3.3l.415,1.449H1.606A1.61,1.61,0,0,1,0,12.207V1.614A1.61,1.61,0,0,1,1.606,0h10.5A1.61,1.61,0,0,1,13.711,1.614ZM11.478,9.042A10.492,10.492,0,0,0,10.35,4.474a3.874,3.874,0,0,0-2.2-.823l-.11.125a5.214,5.214,0,0,1,1.951,1,6.657,6.657,0,0,0-5.853-.227c-.29.133-.462.227-.462.227A5.286,5.286,0,0,1,5.735,3.745l-.078-.094a3.874,3.874,0,0,0-2.2.823A10.492,10.492,0,0,0,2.327,9.042a2.841,2.841,0,0,0,2.39,1.191s.29-.353.525-.65a2.437,2.437,0,0,1-1.371-.925c.115.081.305.185.321.2a5.711,5.711,0,0,0,4.889.274,4.484,4.484,0,0,0,.9-.462A2.472,2.472,0,0,1,8.564,9.6c.235.3.517.635.517.635A2.864,2.864,0,0,0,11.478,9.042Z" fill="#fff"/>
</svg>
