<svg xmlns="http://www.w3.org/2000/svg" width="15.278" height="13.068" viewBox="0 0 15.278 13.068">
  <g id="lvl-5" transform="translate(1 -4.108)">
    <path id="Icon_ionic-ios-star" data-name="Icon ionic-ios-star" d="M7.436,5.108H5.666L5.128,3.5a.195.195,0,0,0-.366,0L4.224,5.108H2.443A.193.193,0,0,0,2.25,5.3a.141.141,0,0,0,0,.032.185.185,0,0,0,.081.136L3.789,6.494,3.231,8.117a.193.193,0,0,0,.066.217.186.186,0,0,0,.108.047.236.236,0,0,0,.12-.043l1.42-1.012,1.42,1.012a.225.225,0,0,0,.12.043.173.173,0,0,0,.107-.047.191.191,0,0,0,.066-.217L6.1,6.494,7.543,5.459l.035-.03a.184.184,0,0,0-.142-.321Z" transform="translate(6.638 0.733)" fill="#fff"/>
    <path id="Icon_ionic-ios-star-2" data-name="Icon ionic-ios-star" d="M7.436,5.108H5.666L5.128,3.5a.195.195,0,0,0-.366,0L4.224,5.108H2.443A.193.193,0,0,0,2.25,5.3a.141.141,0,0,0,0,.032.185.185,0,0,0,.081.136L3.789,6.494,3.231,8.117a.193.193,0,0,0,.066.217.186.186,0,0,0,.108.047.236.236,0,0,0,.12-.043l1.42-1.012,1.42,1.012a.225.225,0,0,0,.12.043.173.173,0,0,0,.107-.047.191.191,0,0,0,.066-.217L6.1,6.494,7.543,5.459l.035-.03a.184.184,0,0,0-.142-.321Z" transform="translate(6.638 8.796)" fill="#fff"/>
    <path id="Icon_ionic-ios-star-3" data-name="Icon ionic-ios-star" d="M7.436,5.108H5.666L5.128,3.5a.195.195,0,0,0-.366,0L4.224,5.108H2.443A.193.193,0,0,0,2.25,5.3a.141.141,0,0,0,0,.032.185.185,0,0,0,.081.136L3.789,6.494,3.231,8.117a.193.193,0,0,0,.066.217.186.186,0,0,0,.108.047.236.236,0,0,0,.12-.043l1.42-1.012,1.42,1.012a.225.225,0,0,0,.12.043.173.173,0,0,0,.107-.047.191.191,0,0,0,.066-.217L6.1,6.494,7.543,5.459l.035-.03a.184.184,0,0,0-.142-.321Z" transform="translate(-3.25 0.733)" fill="#fff"/>
    <path id="Icon_ionic-ios-star-4" data-name="Icon ionic-ios-star" d="M7.436,5.108H5.666L5.128,3.5a.195.195,0,0,0-.366,0L4.224,5.108H2.443A.193.193,0,0,0,2.25,5.3a.141.141,0,0,0,0,.032.185.185,0,0,0,.081.136L3.789,6.494,3.231,8.117a.193.193,0,0,0,.066.217.186.186,0,0,0,.108.047.236.236,0,0,0,.12-.043l1.42-1.012,1.42,1.012a.225.225,0,0,0,.12.043.173.173,0,0,0,.107-.047.191.191,0,0,0,.066-.217L6.1,6.494,7.543,5.459l.035-.03a.184.184,0,0,0-.142-.321Z" transform="translate(-3.25 8.796)" fill="#fff"/>
    <path id="Icon_ionic-ios-star-5" data-name="Icon ionic-ios-star" d="M7.436,5.108H5.666L5.128,3.5a.195.195,0,0,0-.366,0L4.224,5.108H2.443A.193.193,0,0,0,2.25,5.3a.141.141,0,0,0,0,.032.185.185,0,0,0,.081.136L3.789,6.494,3.231,8.117a.193.193,0,0,0,.066.217.186.186,0,0,0,.108.047.236.236,0,0,0,.12-.043l1.42-1.012,1.42,1.012a.225.225,0,0,0,.12.043.173.173,0,0,0,.107-.047.191.191,0,0,0,.066-.217L6.1,6.494,7.543,5.459l.035-.03a.184.184,0,0,0-.142-.321Z" transform="translate(1.598 4.764)" fill="#fff"/>
  </g>
</svg>
