<svg xmlns="http://www.w3.org/2000/svg" width="16.156" height="15.287" viewBox="0 0 16.156 15.287">
  <g id="lvl-10" transform="translate(2.086 -2.926)">
    <path id="Icon_ionic-ios-star" data-name="Icon ionic-ios-star" d="M10.981,6.292H8L7.1,3.59a.328.328,0,0,0-.616,0l-.906,2.7h-3a.325.325,0,0,0-.324.324.238.238,0,0,0,.006.055.311.311,0,0,0,.136.229L4.841,8.626,3.9,11.359a.325.325,0,0,0,.111.365.313.313,0,0,0,.182.079.4.4,0,0,0,.2-.073l2.391-1.7,2.391,1.7a.38.38,0,0,0,.2.073.291.291,0,0,0,.18-.079.321.321,0,0,0,.111-.365l-.94-2.733,2.429-1.742.059-.051a.31.31,0,0,0-.239-.541Z" transform="translate(-0.796 3.253)" fill="#fff"/>
    <g id="Icon_ionic-ios-star-2" data-name="Icon ionic-ios-star" transform="translate(-4.336 -0.449)" fill="none" stroke-linecap="square">
      <path d="M17.793,8.667h-5.3l-1.612-4.9a.58.58,0,0,0-1.1,0l-1.612,4.9H2.827a.584.584,0,0,0-.577.588.44.44,0,0,0,.011.1.567.567,0,0,0,.242.415L6.862,12.9,5.189,17.858a.6.6,0,0,0,.2.661.553.553,0,0,0,.325.143.7.7,0,0,0,.361-.132l4.255-3.091,4.255,3.091a.668.668,0,0,0,.361.132.513.513,0,0,0,.321-.143.589.589,0,0,0,.2-.661L13.79,12.9l4.324-3.16.1-.092a.563.563,0,0,0-.426-.981Z" stroke="none"/>
      <path d="M 10.32788753509521 3.57499885559082 C 10.16116714477539 3.57499885559082 10.0205078125 3.674139022827148 9.969738006591797 3.827009201049805 L 8.31254768371582 8.866809844970703 L 2.826988220214844 8.866809844970703 C 2.619117736816406 8.866809844970703 2.449996948242188 9.040859222412109 2.449996948242188 9.254789352416992 C 2.449996948242188 9.276159286499023 2.452537536621094 9.296099662780762 2.455057144165039 9.306369781494141 L 2.459466934204102 9.324339866638184 L 2.460508346557617 9.342819213867188 C 2.463872909545898 9.402895927429199 2.484600067138672 9.495750427246094 2.624174118041992 9.610455513000488 L 7.099127769470215 12.8240795135498 L 5.377987861633301 17.92325973510742 C 5.324284553527832 18.07791709899902 5.377959251403809 18.25714111328125 5.508502006530762 18.35992813110352 C 5.602774620056152 18.42938041687012 5.657516479492188 18.46244049072266 5.711947441101074 18.46244049072266 C 5.774887084960938 18.46244049072266 5.876407623291016 18.42263984680176 5.955047607421875 18.36833000183105 L 10.32788753509521 15.19240951538086 L 14.70089721679688 18.36845016479492 C 14.77692794799805 18.42378997802734 14.87682723999023 18.46244049072266 14.94382762908936 18.46244049072266 C 14.99612808227539 18.46244049072266 15.04923820495605 18.43548965454102 15.14333724975586 18.36021041870117 C 15.27623748779297 18.25864028930664 15.32869720458984 18.08267974853516 15.2736177444458 17.92160987854004 L 13.55345726013184 12.82530975341797 L 17.98846244812012 9.583658218383789 L 18.07748031616211 9.505453109741211 C 18.16029930114746 9.412500381469727 18.20577812194824 9.323764801025391 18.20577812194824 9.254789352416992 C 18.20577812194824 9.051739692687988 18.00889778137207 8.866809844970703 17.79271697998047 8.866809844970703 L 12.34323787689209 8.866809844970703 L 10.68621730804443 3.827579498291016 C 10.63526725769043 3.674139022827148 10.49460792541504 3.57499885559082 10.32788753509521 3.57499885559082 M 10.32788753509521 3.375 C 10.57671737670898 3.375 10.79669761657715 3.525669097900391 10.87602710723877 3.76453971862793 L 12.48800754547119 8.666810035705566 L 17.79271697998047 8.666810035705566 C 18.11005783081055 8.666810035705566 18.40577697753906 8.931399345397949 18.40577697753906 9.254789352416992 C 18.40577697753906 9.405459403991699 18.3120174407959 9.545099258422852 18.21824836730957 9.64799976348877 L 18.11367797851562 9.739870071411133 L 13.78983688354492 12.90025997161865 L 15.4631175994873 17.85765075683594 C 15.54605770111084 18.10018920898438 15.46672821044922 18.36478042602539 15.26477813720703 18.51911926269531 C 15.16379737854004 18.5999698638916 15.06643772125244 18.66243934631348 14.94382762908936 18.66243934631348 C 14.8248176574707 18.66243934631348 14.68417739868164 18.6036491394043 14.58319759368896 18.53014945983887 L 10.32788753509521 15.43958950042725 L 6.072577476501465 18.53014945983887 C 5.971597671508789 18.5999698638916 5.830957412719727 18.66243934631348 5.711947441101074 18.66243934631348 C 5.589337348937988 18.66243934631348 5.49196720123291 18.59629058837891 5.387397766113281 18.51911926269531 C 5.189057350158691 18.36478042602539 5.106107711791992 18.09651947021484 5.189057350158691 17.85765075683594 L 6.862327575683594 12.90025997161865 L 2.502437591552734 9.769259452819824 C 2.325727462768555 9.625949859619141 2.268028259277344 9.482629776000977 2.260818481445312 9.354009628295898 C 2.253606796264648 9.324609756469727 2.249998092651367 9.287859916687012 2.249998092651367 9.254789352416992 C 2.249998092651367 8.931399345397949 2.509647369384766 8.666810035705566 2.826988220214844 8.666810035705566 L 8.167777061462402 8.666810035705566 L 9.77974796295166 3.76453971862793 C 9.859077453613281 3.525669097900391 10.07905769348145 3.375 10.32788753509521 3.375 Z" stroke="none" fill="#fff"/>
    </g>
    <path id="Icon_ionic-ios-star-3" data-name="Icon ionic-ios-star" d="M10.981,6.292H8L7.1,3.59a.328.328,0,0,0-.616,0l-.906,2.7h-3a.325.325,0,0,0-.324.324.238.238,0,0,0,.006.055.311.311,0,0,0,.136.229L4.841,8.626,3.9,11.359a.325.325,0,0,0,.111.365.313.313,0,0,0,.182.079.4.4,0,0,0,.2-.073l2.391-1.7,2.391,1.7a.38.38,0,0,0,.2.073.291.291,0,0,0,.18-.079.321.321,0,0,0,.111-.365l-.94-2.733,2.429-1.742.059-.051a.31.31,0,0,0-.239-.541Z" transform="translate(-0.796 3.253)" fill="#fff"/>
  </g>
</svg>
