<svg xmlns="http://www.w3.org/2000/svg" width="12.159" height="4.966" viewBox="0 0 12.159 4.966">
  <g id="lvl-2" transform="translate(0 -5.108)">
    <path id="Icon_ionic-ios-star" data-name="Icon ionic-ios-star" d="M7.4,5.094H5.639L5.106,3.5a.193.193,0,0,0-.363,0L4.209,5.094H2.441a.192.192,0,0,0-.191.191.14.14,0,0,0,0,.032.184.184,0,0,0,.08.135L3.777,6.469,3.223,8.08a.192.192,0,0,0,.066.215.185.185,0,0,0,.107.047A.234.234,0,0,0,3.515,8.3l1.409-1,1.409,1a.224.224,0,0,0,.119.043.171.171,0,0,0,.106-.047.189.189,0,0,0,.066-.215L6.07,6.469,7.5,5.443l.035-.03A.183.183,0,0,0,7.4,5.094Z" transform="translate(4.56 1.733)" fill="#fff"/>
    <path id="Icon_ionic-ios-star-2" data-name="Icon ionic-ios-star" d="M7.4,5.094H5.639L5.106,3.5a.193.193,0,0,0-.363,0L4.209,5.094H2.441a.192.192,0,0,0-.191.191.14.14,0,0,0,0,.032.184.184,0,0,0,.08.135L3.777,6.469,3.223,8.08a.192.192,0,0,0,.066.215.185.185,0,0,0,.107.047A.234.234,0,0,0,3.515,8.3l1.409-1,1.409,1a.224.224,0,0,0,.119.043.171.171,0,0,0,.106-.047.189.189,0,0,0,.066-.215L6.07,6.469,7.5,5.443l.035-.03A.183.183,0,0,0,7.4,5.094Z" transform="translate(-2.25 1.733)" fill="#fff"/>
  </g>
</svg>
